# xmcd
#
# Track frame offsets:
#	150
#	17052
#	34358
#	50773
#	69661
#	93179
#	107308
#	123304
#	139510
#	155765
#	172262
#	185908
#	201213
#
# Disc length: 2919 seconds
#
# Revision: 0
# Processed by: cddbd v1.5.2PL0 Copyright (c) Steve Scherf et al.
# Submitted via: dBpowerAMP V4.0
#
DISCID=bc0b650d
DTITLE=Happy Feeling - Swinging Christms
DYEAR=2002
DGENRE=Polka
TTITLE0=Merry Christmas Everyone
TTITLE1=Weißer Winterwald
TTITLE2=Jingle Bells
TTITLE3=Wiht Christmas
TTITLE4=Lasst uns froh und munder sein (MEDLEY)
TTITLE5=Rudolph The Red Nosed Reindeer
TTITLE6=Go Tell It On The Mountain
TTITLE7=Ach du liebe Zeit
TTITLE8=Mary´s Boy Child
TTITLE9=Silet Night, Holy Night
TTITLE10=Weihnachten steht vor der Tür
TTITLE11=Fröhliche Weihnacht (MEDLEY)
TTITLE12=Little Drummer Boy
EXTD=
EXTT0=
EXTT1=
EXTT2=
EXTT3=
EXTT4=
EXTT5=
EXTT6=
EXTT7=
EXTT8=
EXTT9=
EXTT10=
EXTT11=
EXTT12=
PLAYORDER=
